<?xml version="1.0" encoding="UTF-8"?>
<svg id="Logo" xmlns="http://www.w3.org/2000/svg" viewBox="0 0 263 208">
  <defs>
    <style>
      .cls-1 {
        fill: #08c4c4;
      }

      .cls-1, .cls-2, .cls-3, .cls-4 {
        stroke-width: 0px;
      }

      .cls-2 {
        fill: #fff;
      }

      .cls-3 {
        fill: #cc4009;
      }

      .cls-4 {
        fill: #fffffd;
      }
    </style>
  </defs>
  <path class="cls-3" d="m178.86,26.17h0s-41.86-.01-41.86-.01v4h40.92c39.26.3,71,33.75,71,75s-31.74,74.7-71,74.99h0s-40.92.01-40.92.01v1.85h-5v-1.85h-27.13c-.69,0-1.38.02-2.08.03-1.25,0-2.49,0-3.72-.03h-3.2c-1.13.06-2.26.1-3.41.1-1.25,0-2.5-.03-3.74-.1h-.92v-.07c-37.9-2.52-67.99-35.6-67.99-75.93S49.91,30.75,87.81,28.23v-.07h.91c1.24-.07,2.49-.1,3.74-.1.35,0,.69,0,1.04.02,6.65-.42,13.34-.22,20-.22.4,0,.72.12.97.3h17.53v-2h-40.63c-.17.01-.35,0-.52,0-41.13,0-74.47,35.37-74.47,79s33.34,79,74.47,79c.17,0,.35-.01.52-.01h0s87.49.01,87.49.01h0c40.89-.31,73.95-35.55,73.95-79S219.75,26.47,178.86,26.17Z"/>
  <path class="cls-3" d="m95.57,31.21c-8.08.3-16.05,2.02-23.85,4.2-.4.2-.73.4-.99.59-27.12,9.56-46.71,36.49-46.71,68.15,0,26.05,13.26,48.89,33.07,61.5,3.85,2.21,7.84,4.17,11.97,5.78,7.6,2.95,15.7,5.04,23.85,5.54,3.1.19,6.2.24,9.3.23,0-.02,0-.03-.02-.05h4.63c3.56-.06,7.12-.15,10.68-.15.26,0,.48.06.68.15h13.82v-106h-26.19v-.03c-.17,0-.33.03-.5.03-6.35,0-11.5-5.15-11.5-11.5s5.15-11.5,11.5-11.5c.17,0,.33.02.5.03v-.03h26.19v-17h-33.83c-.87.02-1.74.03-2.61.06Zm5.17,49.55c7.94.11,13.57,2.31,16.88,6.6,1.99,2.64,2.99,5.79,2.99,9.46s-1.01,6.83-3.02,9.13c-1.12,1.29-2.78,2.47-4.97,3.53,3.32,1.15,5.83,2.97,7.52,5.47,1.69,2.5,2.54,5.52,2.54,9.08s-.97,6.97-2.9,9.88c-1.23,1.93-2.77,3.56-4.61,4.88-2.08,1.51-4.53,2.55-7.36,3.11-2.83.56-5.89.84-9.2.84h-29.34v-61.99h31.47Z"/>
  <path class="cls-3" d="m104.66,130.89c2.85-1.35,4.28-3.92,4.28-7.74,0-3.22-1.38-5.44-4.15-6.64-1.54-.67-3.71-1.02-6.51-1.05h-16.03v16.53h15.81c2.82,0,5.02-.36,6.59-1.09Z"/>
  <path class="cls-2" d="m118.18,177.15c-.19-.09-.41-.15-.68-.15-3.56,0-7.12.09-10.68.15h-4.63s.01.04.02.05c-3.1.01-6.21-.04-9.3-.23-8.15-.51-16.25-2.59-23.85-5.54-4.14-1.61-8.13-3.57-11.97-5.78-19.8-12.6-33.07-35.44-33.07-61.5,0-31.66,19.59-58.59,46.71-68.15.26-.19.6-.39.99-.59,7.8-2.17,15.77-3.89,23.85-4.2.87-.03,1.74-.04,2.61-.06h33.83v-3h-17.53c-.25-.19-.57-.3-.97-.3-6.67,0-13.35-.2-20,.22-.34,0-.69-.02-1.04-.02-1.26,0-2.5.03-3.74.1h-.91v.07C49.91,30.75,19.82,63.83,19.82,104.15s30.1,73.4,67.99,75.93v.07h.92c1.24.07,2.48.1,3.74.1,1.14,0,2.28-.04,3.41-.1h3.2c1.24.02,2.48.04,3.72.03.69,0,1.38-.02,2.08-.03h27.13v-3h-13.82Z"/>
  <path class="cls-1" d="m165.81,48.15v.03c.17,0,.33-.03.5-.03,6.35,0,11.5,5.15,11.5,11.5s-5.15,11.5-11.5,11.5c-.17,0-.33-.02-.5-.03v.03h-28.81v109h40.92c39.26-.3,71-33.75,71-75s-31.74-74.7-71-74.99h0s-40.92-.01-40.92-.01v18h28.81Zm26.98,56.24v-23.64h13.52v61.99h-13.52v-27.67h-25.32v27.67h-13.52v-61.99h13.52v23.64h25.32Z"/>
  <path class="cls-4" d="m105.81,48.18c-.17,0-.33-.03-.5-.03-6.35,0-11.5,5.15-11.5,11.5s5.15,11.5,11.5,11.5c.17,0,.33-.02.5-.03v.03h26.19v-23h-26.19v.03Z"/>
  <path class="cls-4" d="m165.81,71.13c.17,0,.33.03.5.03,6.35,0,11.5-5.15,11.5-11.5s-5.15-11.5-11.5-11.5c-.17,0-.33.02-.5.03v-.03h-28.81v23h28.81v-.03Z"/>
  <path class="cls-3" d="m104.97,103.66c1.76-1.02,2.65-2.84,2.65-5.45,0-2.89-1.17-4.79-3.5-5.72-2.01-.65-4.58-.97-7.7-.97h-14.17v13.67h15.83c2.83,0,5.12-.51,6.89-1.54Z"/>
  <polygon class="cls-4" points="167.47 80.76 153.96 80.76 153.96 142.75 167.47 142.75 167.47 115.08 192.79 115.08 192.79 142.75 206.31 142.75 206.31 80.76 192.79 80.76 192.79 104.4 167.47 104.4 167.47 80.76"/>
  <path class="cls-4" d="m69.27,142.75h29.34c3.31,0,6.38-.28,9.2-.84,2.83-.56,5.28-1.6,7.36-3.11,1.84-1.32,3.38-2.94,4.61-4.88,1.93-2.92,2.9-6.21,2.9-9.88s-.85-6.59-2.54-9.08c-1.69-2.5-4.2-4.32-7.52-5.47,2.19-1.07,3.84-2.24,4.97-3.53,2.01-2.3,3.02-5.34,3.02-9.13s-1-6.83-2.99-9.46c-3.31-4.29-8.94-6.49-16.88-6.6h-31.47v61.99Zm12.99-51.22h14.17c3.12,0,5.68.32,7.7.97,2.33.92,3.5,2.83,3.5,5.72,0,2.61-.88,4.42-2.65,5.45-1.76,1.02-4.06,1.54-6.89,1.54h-15.83v-13.67Zm0,23.93h16.03c2.79.03,4.96.38,6.51,1.05,2.77,1.21,4.15,3.42,4.15,6.64,0,3.81-1.43,6.39-4.28,7.74-1.57.73-3.77,1.09-6.59,1.09h-15.81v-16.53Z"/>
  <polygon class="cls-3" points="132 31.15 132 48.15 132 71.15 132 177.15 132 180.15 132 182 137 182 137 180.15 137 71.15 137 48.15 137 30.15 137 26.15 137 26 132 26 132 26.15 132 28.15 132 31.15"/>
</svg>